<svg width="500" height="500" viewBox="0 0 500 500" fill="none" xmlns="http://www.w3.org/2000/svg">
<circle cx="250" cy="250" r="250" fill="#16A085"/>
<path d="M124.133 202.863L87.4141 318H53.4297L106.066 175.812H127.551L124.133 202.863ZM154.602 318L117.785 202.863L113.977 175.812H135.754L188.586 318H154.602ZM153.039 265.07V289.68H78.918V265.07H153.039ZM200.402 175.812H254.992C265.865 175.812 275.272 177.44 283.215 180.695C291.223 183.951 297.375 188.768 301.672 195.148C305.969 201.529 308.117 209.406 308.117 218.781C308.117 226.594 306.848 233.234 304.309 238.703C301.77 244.172 298.189 248.697 293.566 252.277C289.009 255.858 283.671 258.755 277.551 260.969L267.199 266.633H220.715L220.52 241.926H255.09C259.842 241.926 263.781 241.079 266.906 239.387C270.031 237.694 272.375 235.318 273.938 232.258C275.565 229.133 276.379 225.487 276.379 221.32C276.379 217.023 275.565 213.312 273.938 210.188C272.31 207.062 269.901 204.686 266.711 203.059C263.586 201.366 259.68 200.52 254.992 200.52H232.238V318H200.402V175.812ZM279.113 318L247.18 254.816L280.773 254.719L313.195 316.535V318H279.113ZM385.754 268.586H350.012V243.879H385.754C391.027 243.879 395.259 243 398.449 241.242C401.704 239.484 404.081 237.076 405.578 234.016C407.141 230.891 407.922 227.375 407.922 223.469C407.922 219.432 407.141 215.689 405.578 212.238C404.081 208.723 401.704 205.891 398.449 203.742C395.259 201.594 391.027 200.52 385.754 200.52H361.535V318H329.699V175.812H385.754C397.082 175.812 406.783 177.863 414.855 181.965C422.993 186.066 429.211 191.698 433.508 198.859C437.87 205.956 440.051 214.094 440.051 223.273C440.051 232.453 437.87 240.428 433.508 247.199C429.211 253.97 422.993 259.243 414.855 263.02C406.783 266.73 397.082 268.586 385.754 268.586Z" fill="white"/>
</svg>
