<svg width="500" height="500" viewBox="0 0 500 500" fill="none" xmlns="http://www.w3.org/2000/svg">
<circle cx="250" cy="250" r="250" fill="#9B59B6"/>
<path d="M93.7617 301H70.3242L70.4707 282.543H93.7617C99.084 282.543 103.576 281.322 107.238 278.881C110.9 276.391 113.684 272.729 115.588 267.895C117.492 263.012 118.444 257.079 118.444 250.097V245.189C118.444 239.916 117.907 235.277 116.833 231.273C115.759 227.221 114.172 223.827 112.072 221.093C109.973 218.358 107.36 216.308 104.235 214.94C101.159 213.573 97.6191 212.89 93.6152 212.89H69.8848V194.359H93.6152C100.842 194.359 107.434 195.58 113.391 198.021C119.396 200.463 124.572 203.954 128.918 208.495C133.312 213.036 136.706 218.407 139.099 224.608C141.491 230.81 142.688 237.719 142.688 245.336V250.097C142.688 257.665 141.491 264.574 139.099 270.824C136.706 277.025 133.312 282.396 128.918 286.938C124.572 291.43 119.421 294.896 113.464 297.338C107.507 299.779 100.939 301 93.7617 301ZM83.874 194.359V301H59.9971V194.359H83.874ZM228.82 237.279V255.736H173.596V237.279H228.82ZM181.14 194.359V301H157.263V194.359H181.14ZM245.3 194.359V301H221.496V194.359H245.3ZM324.328 265.258H348.059C347.668 272.582 345.666 279.052 342.053 284.667C338.488 290.233 333.532 294.604 327.185 297.777C320.837 300.902 313.293 302.465 304.553 302.465C297.57 302.465 291.32 301.269 285.803 298.876C280.285 296.483 275.598 293.065 271.74 288.622C267.932 284.13 265.002 278.734 262.951 272.436C260.949 266.088 259.948 258.935 259.948 250.976V244.457C259.948 236.498 260.998 229.345 263.098 222.997C265.197 216.649 268.2 211.229 272.106 206.737C276.013 202.245 280.7 198.803 286.169 196.41C291.638 194.018 297.741 192.821 304.479 192.821C313.562 192.821 321.228 194.457 327.478 197.729C333.728 201 338.562 205.492 341.979 211.205C345.446 216.918 347.521 223.437 348.205 230.761H324.401C324.206 226.61 323.425 223.119 322.058 220.287C320.69 217.406 318.591 215.233 315.759 213.769C312.927 212.304 309.167 211.571 304.479 211.571C301.062 211.571 298.059 212.206 295.471 213.476C292.932 214.745 290.808 216.723 289.099 219.408C287.438 222.094 286.193 225.512 285.363 229.662C284.533 233.764 284.118 238.646 284.118 244.311V250.976C284.118 256.591 284.484 261.449 285.217 265.551C285.949 269.652 287.121 273.046 288.732 275.731C290.393 278.417 292.517 280.419 295.104 281.737C297.692 283.056 300.842 283.715 304.553 283.715C308.801 283.715 312.341 283.056 315.173 281.737C318.005 280.37 320.178 278.319 321.691 275.585C323.205 272.851 324.084 269.408 324.328 265.258ZM403.356 263.939H376.55V245.409H403.356C407.312 245.409 410.485 244.75 412.878 243.432C415.319 242.113 417.102 240.307 418.225 238.012C419.396 235.668 419.982 233.031 419.982 230.102C419.982 227.074 419.396 224.267 418.225 221.679C417.102 219.042 415.319 216.918 412.878 215.307C410.485 213.695 407.312 212.89 403.356 212.89H385.192V301H361.315V194.359H403.356C411.853 194.359 419.128 195.897 425.183 198.974C431.286 202.05 435.949 206.273 439.172 211.645C442.443 216.967 444.079 223.07 444.079 229.955C444.079 236.84 442.443 242.821 439.172 247.899C435.949 252.978 431.286 256.933 425.183 259.765C419.128 262.548 411.853 263.939 403.356 263.939Z" fill="white"/>
</svg>
