<svg width="500" height="500" viewBox="0 0 500 500" fill="none" xmlns="http://www.w3.org/2000/svg">
<circle cx="250" cy="250" r="250" fill="#1ABC9C"/>
<path d="M109.875 318H78.625L78.8203 293.391H109.875C116.971 293.391 122.961 291.763 127.844 288.508C132.727 285.188 136.438 280.305 138.977 273.859C141.516 267.349 142.785 259.439 142.785 250.129V243.586C142.785 236.555 142.069 230.37 140.637 225.031C139.204 219.628 137.089 215.103 134.289 211.457C131.49 207.811 128.007 205.077 123.84 203.254C119.738 201.431 115.018 200.52 109.68 200.52H78.0391V175.812H109.68C119.315 175.812 128.104 177.44 136.047 180.695C144.055 183.951 150.956 188.605 156.75 194.66C162.609 200.715 167.134 207.876 170.324 216.145C173.514 224.413 175.109 233.625 175.109 243.781V250.129C175.109 260.22 173.514 269.432 170.324 277.766C167.134 286.034 162.609 293.195 156.75 299.25C150.956 305.24 144.087 309.862 136.145 313.117C128.202 316.372 119.445 318 109.875 318ZM96.6914 175.812V318H64.8555V175.812H96.6914ZM311.828 175.812V318H280.09L226.379 226.105V318H194.543V175.812H226.379L280.188 267.707V175.812H311.828ZM409.094 280.5C409.094 278.091 408.736 275.943 408.02 274.055C407.303 272.102 406.001 270.311 404.113 268.684C402.225 267.056 399.556 265.428 396.105 263.801C392.655 262.108 388.13 260.383 382.531 258.625C376.151 256.542 370.064 254.198 364.27 251.594C358.54 248.924 353.43 245.832 348.938 242.316C344.445 238.801 340.897 234.699 338.293 230.012C335.754 225.324 334.484 219.855 334.484 213.605C334.484 207.551 335.819 202.082 338.488 197.199C341.158 192.316 344.901 188.15 349.719 184.699C354.536 181.184 360.201 178.514 366.711 176.691C373.221 174.803 380.383 173.859 388.195 173.859C398.612 173.859 407.759 175.715 415.637 179.426C423.579 183.072 429.764 188.215 434.191 194.855C438.618 201.431 440.832 209.081 440.832 217.805H409.191C409.191 213.964 408.378 210.578 406.75 207.648C405.188 204.654 402.779 202.31 399.523 200.617C396.333 198.924 392.329 198.078 387.512 198.078C382.824 198.078 378.885 198.794 375.695 200.227C372.57 201.594 370.194 203.482 368.566 205.891C367.004 208.299 366.223 210.936 366.223 213.801C366.223 216.079 366.809 218.163 367.98 220.051C369.217 221.874 370.975 223.599 373.254 225.227C375.598 226.789 378.462 228.286 381.848 229.719C385.233 231.151 389.107 232.518 393.469 233.82C401.086 236.229 407.824 238.898 413.684 241.828C419.608 244.758 424.589 248.078 428.625 251.789C432.661 255.5 435.689 259.699 437.707 264.387C439.79 269.074 440.832 274.38 440.832 280.305C440.832 286.62 439.595 292.219 437.121 297.102C434.712 301.984 431.197 306.151 426.574 309.602C422.017 312.987 416.548 315.559 410.168 317.316C403.788 319.074 396.659 319.953 388.781 319.953C381.62 319.953 374.556 319.042 367.59 317.219C360.624 315.331 354.309 312.466 348.645 308.625C343.046 304.784 338.553 299.901 335.168 293.977C331.848 287.987 330.188 280.891 330.188 272.688H362.023C362.023 276.984 362.642 280.63 363.879 283.625C365.116 286.555 366.874 288.931 369.152 290.754C371.496 292.577 374.328 293.879 377.648 294.66C380.969 295.441 384.68 295.832 388.781 295.832C393.534 295.832 397.375 295.181 400.305 293.879C403.299 292.512 405.513 290.656 406.945 288.312C408.378 285.969 409.094 283.365 409.094 280.5Z" fill="white"/>
</svg>
