<svg width="500" height="500" viewBox="0 0 500 500" fill="none" xmlns="http://www.w3.org/2000/svg">
<circle cx="250" cy="250" r="250" fill="#27AE60"/>
<path d="M110.852 175.812V318H79.0156V175.812H110.852ZM166.809 235.773V260.383H101.965V235.773H166.809ZM173.059 175.812V200.52H101.965V175.812H173.059ZM256.75 175.812V318H225.012V175.812H256.75ZM300.012 175.812V200.52H182.629V175.812H300.012ZM371.789 268.586H336.047V243.879H371.789C377.062 243.879 381.294 243 384.484 241.242C387.74 239.484 390.116 237.076 391.613 234.016C393.176 230.891 393.957 227.375 393.957 223.469C393.957 219.432 393.176 215.689 391.613 212.238C390.116 208.723 387.74 205.891 384.484 203.742C381.294 201.594 377.062 200.52 371.789 200.52H347.57V318H315.734V175.812H371.789C383.117 175.812 392.818 177.863 400.891 181.965C409.029 186.066 415.246 191.698 419.543 198.859C423.905 205.956 426.086 214.094 426.086 223.273C426.086 232.453 423.905 240.428 419.543 247.199C415.246 253.97 409.029 259.243 400.891 263.02C392.818 266.73 383.117 268.586 371.789 268.586Z" fill="white"/>
</svg>
