<svg width="500" height="500" viewBox="0 0 500 500" fill="none" xmlns="http://www.w3.org/2000/svg">
<circle cx="250" cy="250" r="250" fill="#E67E22"/>
<path d="M135.449 237.279V255.736H80.2246V237.279H135.449ZM87.7686 194.359V301H63.8916V194.359H87.7686ZM151.929 194.359V301H128.125V194.359H151.929ZM217.114 194.359V301H193.311V194.359H217.114ZM249.561 194.359V212.89H161.523V194.359H249.561ZM312.183 194.359V301H288.379V194.359H312.183ZM344.629 194.359V212.89H256.592V194.359H344.629ZM398.462 263.939H371.655V245.409H398.462C402.417 245.409 405.591 244.75 407.983 243.432C410.425 242.113 412.207 240.307 413.33 238.012C414.502 235.668 415.088 233.031 415.088 230.102C415.088 227.074 414.502 224.267 413.33 221.679C412.207 219.042 410.425 216.918 407.983 215.307C405.591 213.695 402.417 212.89 398.462 212.89H380.298V301H356.421V194.359H398.462C406.958 194.359 414.233 195.897 420.288 198.974C426.392 202.05 431.055 206.273 434.277 211.645C437.549 216.967 439.185 223.07 439.185 229.955C439.185 236.84 437.549 242.821 434.277 247.899C431.055 252.978 426.392 256.933 420.288 259.765C414.233 262.548 406.958 263.939 398.462 263.939Z" fill="white"/>
</svg>
