<svg width="500" height="500" viewBox="0 0 500 500" fill="none" xmlns="http://www.w3.org/2000/svg">
<circle cx="250" cy="250" r="250" fill="#D35400"/>
<path d="M121.594 240.023V254.789H77.4141V240.023H121.594ZM83.4492 205.688V291H64.3477V205.688H83.4492ZM134.777 205.688V291H115.734V205.688H134.777ZM186.926 205.688V291H167.883V205.688H186.926ZM212.883 205.688V220.512H142.453V205.688H212.883ZM262.98 205.688V291H243.938V205.688H262.98ZM288.938 205.688V220.512H218.508V205.688H288.938ZM332.004 261.352H310.559V246.527H332.004C335.168 246.527 337.707 246 339.621 244.945C341.574 243.891 343 242.445 343.898 240.609C344.836 238.734 345.305 236.625 345.305 234.281C345.305 231.859 344.836 229.613 343.898 227.543C343 225.434 341.574 223.734 339.621 222.445C337.707 221.156 335.168 220.512 332.004 220.512H317.473V291H298.371V205.688H332.004C338.801 205.688 344.621 206.918 349.465 209.379C354.348 211.84 358.078 215.219 360.656 219.516C363.273 223.773 364.582 228.656 364.582 234.164C364.582 239.672 363.273 244.457 360.656 248.52C358.078 252.582 354.348 255.746 349.465 258.012C344.621 260.238 338.801 261.352 332.004 261.352ZM420.422 268.5C420.422 267.055 420.207 265.766 419.777 264.633C419.348 263.461 418.566 262.387 417.434 261.41C416.301 260.434 414.699 259.457 412.629 258.48C410.559 257.465 407.844 256.43 404.484 255.375C400.656 254.125 397.004 252.719 393.527 251.156C390.09 249.555 387.023 247.699 384.328 245.59C381.633 243.48 379.504 241.02 377.941 238.207C376.418 235.395 375.656 232.113 375.656 228.363C375.656 224.73 376.457 221.449 378.059 218.52C379.66 215.59 381.906 213.09 384.797 211.02C387.688 208.91 391.086 207.309 394.992 206.215C398.898 205.082 403.195 204.516 407.883 204.516C414.133 204.516 419.621 205.629 424.348 207.855C429.113 210.043 432.824 213.129 435.48 217.113C438.137 221.059 439.465 225.648 439.465 230.883H420.48C420.48 228.578 419.992 226.547 419.016 224.789C418.078 222.992 416.633 221.586 414.68 220.57C412.766 219.555 410.363 219.047 407.473 219.047C404.66 219.047 402.297 219.477 400.383 220.336C398.508 221.156 397.082 222.289 396.105 223.734C395.168 225.18 394.699 226.762 394.699 228.48C394.699 229.848 395.051 231.098 395.754 232.23C396.496 233.324 397.551 234.359 398.918 235.336C400.324 236.273 402.043 237.172 404.074 238.031C406.105 238.891 408.43 239.711 411.047 240.492C415.617 241.938 419.66 243.539 423.176 245.297C426.73 247.055 429.719 249.047 432.141 251.273C434.562 253.5 436.379 256.02 437.59 258.832C438.84 261.645 439.465 264.828 439.465 268.383C439.465 272.172 438.723 275.531 437.238 278.461C435.793 281.391 433.684 283.891 430.91 285.961C428.176 287.992 424.895 289.535 421.066 290.59C417.238 291.645 412.961 292.172 408.234 292.172C403.938 292.172 399.699 291.625 395.52 290.531C391.34 289.398 387.551 287.68 384.152 285.375C380.793 283.07 378.098 280.141 376.066 276.586C374.074 272.992 373.078 268.734 373.078 263.812H392.18C392.18 266.391 392.551 268.578 393.293 270.375C394.035 272.133 395.09 273.559 396.457 274.652C397.863 275.746 399.562 276.527 401.555 276.996C403.547 277.465 405.773 277.699 408.234 277.699C411.086 277.699 413.391 277.309 415.148 276.527C416.945 275.707 418.273 274.594 419.133 273.188C419.992 271.781 420.422 270.219 420.422 268.5Z" fill="white"/>
</svg>
