<svg width="500" height="500" viewBox="0 0 500 500" fill="none" xmlns="http://www.w3.org/2000/svg">
<circle cx="250" cy="250" r="250" fill="#F39C12"/>
<path d="M98.3887 194.359V301H74.585V194.359H98.3887ZM178.955 265.258H202.686C202.295 272.582 200.293 279.052 196.68 284.667C193.115 290.233 188.159 294.604 181.812 297.777C175.464 300.902 167.92 302.465 159.18 302.465C152.197 302.465 145.947 301.269 140.43 298.876C134.912 296.483 130.225 293.065 126.367 288.622C122.559 284.13 119.629 278.734 117.578 272.436C115.576 266.088 114.575 258.935 114.575 250.976V244.457C114.575 236.498 115.625 229.345 117.725 222.997C119.824 216.649 122.827 211.229 126.733 206.737C130.64 202.245 135.327 198.803 140.796 196.41C146.265 194.018 152.368 192.821 159.106 192.821C168.188 192.821 175.854 194.457 182.104 197.729C188.354 201 193.188 205.492 196.606 211.205C200.073 216.918 202.148 223.437 202.832 230.761H179.028C178.833 226.61 178.052 223.119 176.685 220.287C175.317 217.406 173.218 215.233 170.386 213.769C167.554 212.304 163.794 211.571 159.106 211.571C155.688 211.571 152.686 212.206 150.098 213.476C147.559 214.745 145.435 216.723 143.726 219.408C142.065 222.094 140.82 225.512 139.99 229.662C139.16 233.764 138.745 238.646 138.745 244.311V250.976C138.745 256.591 139.111 261.449 139.844 265.551C140.576 269.652 141.748 273.046 143.359 275.731C145.02 278.417 147.144 280.419 149.731 281.737C152.319 283.056 155.469 283.715 159.18 283.715C163.428 283.715 166.968 283.056 169.8 281.737C172.632 280.37 174.805 278.319 176.318 275.585C177.832 272.851 178.711 269.408 178.955 265.258ZM227.368 194.359H247.144L272.778 270.604L298.34 194.359H318.115L280.762 301H264.722L227.368 194.359ZM215.942 194.359H236.084L239.819 273.388V301H215.942V194.359ZM309.399 194.359H329.614V301H305.664V273.388L309.399 194.359ZM389.38 263.939H362.573V245.409H389.38C393.335 245.409 396.509 244.75 398.901 243.432C401.343 242.113 403.125 240.307 404.248 238.012C405.42 235.668 406.006 233.031 406.006 230.102C406.006 227.074 405.42 224.267 404.248 221.679C403.125 219.042 401.343 216.918 398.901 215.307C396.509 213.695 393.335 212.89 389.38 212.89H371.216V301H347.339V194.359H389.38C397.876 194.359 405.151 195.897 411.206 198.974C417.31 202.05 421.973 206.273 425.195 211.645C428.467 216.967 430.103 223.07 430.103 229.955C430.103 236.84 428.467 242.821 425.195 247.899C421.973 252.978 417.31 256.933 411.206 259.765C405.151 262.548 397.876 263.939 389.38 263.939Z" fill="white"/>
</svg>
