<svg width="500" height="500" viewBox="0 0 500 500" fill="none" xmlns="http://www.w3.org/2000/svg">
<circle cx="250" cy="250" r="250" fill="#E74C3C"/>
<path d="M96.6182 194.359V301H72.8145V194.359H96.6182ZM127.307 194.359H147.082L172.717 270.604L198.278 194.359H218.054L180.7 301H164.66L127.307 194.359ZM115.881 194.359H136.022L139.758 273.388V301H115.881V194.359ZM209.338 194.359H229.553V301H205.603V273.388L209.338 194.359ZM292.907 214.647L265.368 301H239.88L279.357 194.359H295.471L292.907 214.647ZM315.759 301L288.146 214.647L285.29 194.359H301.623L341.247 301H315.759ZM314.587 261.303V279.76H258.996V261.303H314.587ZM392.15 263.939H365.344V245.409H392.15C396.105 245.409 399.279 244.75 401.672 243.432C404.113 242.113 405.896 240.307 407.019 238.012C408.19 235.668 408.776 233.031 408.776 230.102C408.776 227.074 408.19 224.267 407.019 221.679C405.896 219.042 404.113 216.918 401.672 215.307C399.279 213.695 396.105 212.89 392.15 212.89H373.986V301H350.109V194.359H392.15C400.646 194.359 407.922 195.897 413.977 198.974C420.08 202.05 424.743 206.273 427.966 211.645C431.237 216.967 432.873 223.07 432.873 229.955C432.873 236.84 431.237 242.821 427.966 247.899C424.743 252.978 420.08 256.933 413.977 259.765C407.922 262.548 400.646 263.939 392.15 263.939Z" fill="white"/>
</svg>
