<svg width="500" height="500" viewBox="0 0 500 500" fill="none" xmlns="http://www.w3.org/2000/svg">
<circle cx="250" cy="250" r="250" fill="#2980B9"/>
<path d="M200.977 175.812V318H169.238V175.812H200.977ZM282.715 268.586H246.973V243.879H282.715C287.988 243.879 292.22 243 295.41 241.242C298.665 239.484 301.042 237.076 302.539 234.016C304.102 230.891 304.883 227.375 304.883 223.469C304.883 219.432 304.102 215.689 302.539 212.238C301.042 208.723 298.665 205.891 295.41 203.742C292.22 201.594 287.988 200.52 282.715 200.52H258.496V318H226.66V175.812H282.715C294.043 175.812 303.743 177.863 311.816 181.965C319.954 186.066 326.172 191.698 330.469 198.859C334.831 205.956 337.012 214.094 337.012 223.273C337.012 232.453 334.831 240.428 330.469 247.199C326.172 253.97 319.954 259.243 311.816 263.02C303.743 266.73 294.043 268.586 282.715 268.586Z" fill="white"/>
</svg>
