<svg width="500" height="500" viewBox="0 0 500 500" fill="none" xmlns="http://www.w3.org/2000/svg">
<circle cx="250" cy="250" r="250" fill="#AD00FF"/>
<path d="M179.406 175.812V318H147.668L93.957 226.105V318H62.1211V175.812H93.957L147.766 267.707V175.812H179.406ZM247.961 318H216.711L216.906 293.391H247.961C255.057 293.391 261.047 291.763 265.93 288.508C270.812 285.188 274.523 280.305 277.062 273.859C279.602 267.349 280.871 259.439 280.871 250.129V243.586C280.871 236.555 280.155 230.37 278.723 225.031C277.29 219.628 275.174 215.103 272.375 211.457C269.576 207.811 266.092 205.077 261.926 203.254C257.824 201.431 253.104 200.52 247.766 200.52H216.125V175.812H247.766C257.401 175.812 266.19 177.44 274.133 180.695C282.141 183.951 289.042 188.605 294.836 194.66C300.695 200.715 305.22 207.876 308.41 216.145C311.6 224.413 313.195 233.625 313.195 243.781V250.129C313.195 260.22 311.6 269.432 308.41 277.766C305.22 286.034 300.695 293.195 294.836 299.25C289.042 305.24 282.173 309.862 274.23 313.117C266.288 316.372 257.531 318 247.961 318ZM234.777 175.812V318H202.941V175.812H234.777ZM388.684 268.586H352.941V243.879H388.684C393.957 243.879 398.189 243 401.379 241.242C404.634 239.484 407.01 237.076 408.508 234.016C410.07 230.891 410.852 227.375 410.852 223.469C410.852 219.432 410.07 215.689 408.508 212.238C407.01 208.723 404.634 205.891 401.379 203.742C398.189 201.594 393.957 200.52 388.684 200.52H364.465V318H332.629V175.812H388.684C400.012 175.812 409.712 177.863 417.785 181.965C425.923 186.066 432.141 191.698 436.438 198.859C440.799 205.956 442.98 214.094 442.98 223.273C442.98 232.453 440.799 240.428 436.438 247.199C432.141 253.97 425.923 259.243 417.785 263.02C409.712 266.73 400.012 268.586 388.684 268.586Z" fill="white"/>
</svg>
