<svg width="500" height="500" viewBox="0 0 500 500" fill="none" xmlns="http://www.w3.org/2000/svg">
<circle cx="250" cy="250" r="250" fill="#1ABC9C"/>
<path d="M183.117 175.812V318H151.379L97.668 226.105V318H65.832V175.812H97.668L151.477 267.707V175.812H183.117ZM269.934 175.812V318H238.195V175.812H269.934ZM313.195 175.812V200.52H195.812V175.812H313.195ZM384.973 268.586H349.23V243.879H384.973C390.246 243.879 394.478 243 397.668 241.242C400.923 239.484 403.299 237.076 404.797 234.016C406.359 230.891 407.141 227.375 407.141 223.469C407.141 219.432 406.359 215.689 404.797 212.238C403.299 208.723 400.923 205.891 397.668 203.742C394.478 201.594 390.246 200.52 384.973 200.52H360.754V318H328.918V175.812H384.973C396.301 175.812 406.001 177.863 414.074 181.965C422.212 186.066 428.43 191.698 432.727 198.859C437.089 205.956 439.27 214.094 439.27 223.273C439.27 232.453 437.089 240.428 432.727 247.199C428.43 253.97 422.212 259.243 414.074 263.02C406.001 266.73 396.301 268.586 384.973 268.586Z" fill="white"/>
</svg>
