<svg width="500" height="500" viewBox="0 0 500 500" fill="none" xmlns="http://www.w3.org/2000/svg">
<circle cx="250" cy="250" r="250" fill="#34495E"/>
<path d="M108.996 263.939H82.1895V245.409H108.996C112.951 245.409 116.125 244.75 118.518 243.432C120.959 242.113 122.741 240.307 123.864 238.012C125.036 235.668 125.622 233.031 125.622 230.102C125.622 227.074 125.036 224.267 123.864 221.679C122.741 219.042 120.959 216.918 118.518 215.307C116.125 213.695 112.951 212.89 108.996 212.89H90.832V301H66.9551V194.359H108.996C117.492 194.359 124.768 195.897 130.822 198.974C136.926 202.05 141.589 206.273 144.812 211.645C148.083 216.967 149.719 223.07 149.719 229.955C149.719 236.84 148.083 242.821 144.812 247.899C141.589 252.978 136.926 256.933 130.822 259.765C124.768 262.548 117.492 263.939 108.996 263.939ZM253.137 245.336V250.097C253.137 258.202 252.014 265.478 249.768 271.923C247.57 278.368 244.421 283.861 240.319 288.402C236.267 292.943 231.433 296.435 225.817 298.876C220.251 301.269 214.074 302.465 207.287 302.465C200.5 302.465 194.299 301.269 188.684 298.876C183.068 296.435 178.186 292.943 174.035 288.402C169.934 283.861 166.76 278.368 164.514 271.923C162.268 265.478 161.145 258.202 161.145 250.097V245.336C161.145 237.23 162.268 229.955 164.514 223.51C166.76 217.016 169.909 211.498 173.962 206.957C178.063 202.416 182.922 198.949 188.537 196.557C194.152 194.115 200.354 192.895 207.141 192.895C213.928 192.895 220.129 194.115 225.744 196.557C231.359 198.949 236.193 202.416 240.246 206.957C244.348 211.498 247.521 217.016 249.768 223.51C252.014 229.955 253.137 237.23 253.137 245.336ZM229.04 250.097V245.189C229.04 239.77 228.552 234.984 227.575 230.834C226.599 226.635 225.183 223.119 223.327 220.287C221.472 217.455 219.177 215.331 216.442 213.915C213.708 212.45 210.607 211.718 207.141 211.718C203.527 211.718 200.378 212.45 197.692 213.915C195.007 215.331 192.736 217.455 190.881 220.287C189.074 223.119 187.683 226.635 186.706 230.834C185.778 234.984 185.314 239.77 185.314 245.189V250.097C185.314 255.468 185.778 260.253 186.706 264.452C187.683 268.603 189.099 272.118 190.954 274.999C192.81 277.88 195.08 280.053 197.766 281.518C200.5 282.982 203.674 283.715 207.287 283.715C210.754 283.715 213.83 282.982 216.516 281.518C219.25 280.053 221.545 277.88 223.4 274.999C225.256 272.118 226.647 268.603 227.575 264.452C228.552 260.253 229.04 255.468 229.04 250.097ZM309.826 263.939H283.02V245.409H309.826C313.781 245.409 316.955 244.75 319.348 243.432C321.789 242.113 323.571 240.307 324.694 238.012C325.866 235.668 326.452 233.031 326.452 230.102C326.452 227.074 325.866 224.267 324.694 221.679C323.571 219.042 321.789 216.918 319.348 215.307C316.955 213.695 313.781 212.89 309.826 212.89H291.662V301H267.785V194.359H309.826C318.322 194.359 325.598 195.897 331.652 198.974C337.756 202.05 342.419 206.273 345.642 211.645C348.913 216.967 350.549 223.07 350.549 229.955C350.549 236.84 348.913 242.821 345.642 247.899C342.419 252.978 337.756 256.933 331.652 259.765C325.598 262.548 318.322 263.939 309.826 263.939ZM385.266 237.938H396.911C400.231 237.938 402.966 237.353 405.114 236.181C407.312 235.009 408.923 233.349 409.948 231.2C411.022 229.052 411.56 226.537 411.56 223.656C411.56 221.166 411.071 218.944 410.095 216.991C409.118 215.038 407.629 213.5 405.627 212.377C403.674 211.205 401.135 210.619 398.01 210.619C395.764 210.619 393.615 211.083 391.564 212.011C389.562 212.89 387.927 214.184 386.657 215.893C385.388 217.553 384.753 219.555 384.753 221.898H361.828C361.828 215.941 363.439 210.79 366.662 206.444C369.934 202.099 374.255 198.754 379.626 196.41C385.046 194.018 390.954 192.821 397.351 192.821C404.724 192.821 411.193 193.993 416.76 196.337C422.375 198.632 426.721 202.05 429.797 206.591C432.922 211.083 434.484 216.649 434.484 223.29C434.484 226.757 433.654 230.102 431.994 233.324C430.383 236.498 428.063 239.33 425.036 241.82C422.058 244.262 418.493 246.215 414.343 247.68C410.241 249.096 405.676 249.804 400.646 249.804H385.266V237.938ZM385.266 255.15V243.505H400.646C406.213 243.505 411.193 244.14 415.588 245.409C419.982 246.679 423.718 248.51 426.794 250.902C429.87 253.295 432.214 256.2 433.825 259.618C435.437 263.036 436.242 266.845 436.242 271.044C436.242 276.024 435.266 280.468 433.312 284.374C431.359 288.28 428.625 291.576 425.109 294.262C421.594 296.947 417.468 298.998 412.731 300.414C407.995 301.781 402.868 302.465 397.351 302.465C392.907 302.465 388.488 301.854 384.094 300.634C379.699 299.413 375.72 297.558 372.155 295.067C368.591 292.528 365.734 289.33 363.586 285.473C361.438 281.566 360.363 276.928 360.363 271.557H383.288C383.288 274.047 383.923 276.293 385.192 278.295C386.511 280.248 388.293 281.811 390.539 282.982C392.834 284.105 395.324 284.667 398.01 284.667C401.232 284.667 403.967 284.081 406.213 282.909C408.508 281.688 410.241 280.028 411.413 277.929C412.634 275.829 413.244 273.412 413.244 270.678C413.244 266.967 412.585 263.988 411.267 261.742C409.997 259.447 408.142 257.787 405.7 256.762C403.259 255.688 400.329 255.15 396.911 255.15H385.266Z" fill="white"/>
</svg>
