<svg width="500" height="500" viewBox="0 0 500 500" fill="none" xmlns="http://www.w3.org/2000/svg">
<circle cx="250" cy="250" r="250" fill="#2980B9"/>
<path d="M67.8828 175.812H122.473C133.345 175.812 142.753 177.44 150.695 180.695C158.703 183.951 164.855 188.768 169.152 195.148C173.449 201.529 175.598 209.406 175.598 218.781C175.598 226.594 174.328 233.234 171.789 238.703C169.25 244.172 165.669 248.697 161.047 252.277C156.49 255.858 151.151 258.755 145.031 260.969L134.68 266.633H88.1953L88 241.926H122.57C127.323 241.926 131.262 241.079 134.387 239.387C137.512 237.694 139.855 235.318 141.418 232.258C143.046 229.133 143.859 225.487 143.859 221.32C143.859 217.023 143.046 213.312 141.418 210.188C139.79 207.062 137.382 204.686 134.191 203.059C131.066 201.366 127.16 200.52 122.473 200.52H99.7188V318H67.8828V175.812ZM146.594 318L114.66 254.816L148.254 254.719L180.676 316.535V318H146.594ZM242.199 318H210.949L211.145 293.391H242.199C249.296 293.391 255.285 291.763 260.168 288.508C265.051 285.188 268.762 280.305 271.301 273.859C273.84 267.349 275.109 259.439 275.109 250.129V243.586C275.109 236.555 274.393 230.37 272.961 225.031C271.529 219.628 269.413 215.103 266.613 211.457C263.814 207.811 260.331 205.077 256.164 203.254C252.062 201.431 247.342 200.52 242.004 200.52H210.363V175.812H242.004C251.639 175.812 260.428 177.44 268.371 180.695C276.379 183.951 283.28 188.605 289.074 194.66C294.934 200.715 299.458 207.876 302.648 216.145C305.839 224.413 307.434 233.625 307.434 243.781V250.129C307.434 260.22 305.839 269.432 302.648 277.766C299.458 286.034 294.934 293.195 289.074 299.25C283.28 305.24 276.411 309.862 268.469 313.117C260.526 316.372 251.77 318 242.199 318ZM229.016 175.812V318H197.18V175.812H229.016ZM382.922 268.586H347.18V243.879H382.922C388.195 243.879 392.427 243 395.617 241.242C398.872 239.484 401.249 237.076 402.746 234.016C404.309 230.891 405.09 227.375 405.09 223.469C405.09 219.432 404.309 215.689 402.746 212.238C401.249 208.723 398.872 205.891 395.617 203.742C392.427 201.594 388.195 200.52 382.922 200.52H358.703V318H326.867V175.812H382.922C394.25 175.812 403.951 177.863 412.023 181.965C420.161 186.066 426.379 191.698 430.676 198.859C435.038 205.956 437.219 214.094 437.219 223.273C437.219 232.453 435.038 240.428 430.676 247.199C426.379 253.97 420.161 259.243 412.023 263.02C403.951 266.73 394.25 268.586 382.922 268.586Z" fill="white"/>
</svg>
