<svg width="500" height="500" viewBox="0 0 500 500" fill="none" xmlns="http://www.w3.org/2000/svg">
<circle cx="250" cy="250" r="250" fill="#2C3E50"/>
<path d="M107.324 272.875C107.324 271.068 107.056 269.457 106.519 268.041C105.981 266.576 105.005 265.233 103.589 264.013C102.173 262.792 100.171 261.571 97.583 260.351C94.9951 259.081 91.6016 257.787 87.4023 256.469C82.6172 254.906 78.0518 253.148 73.7061 251.195C69.4092 249.193 65.5762 246.874 62.207 244.237C58.8379 241.601 56.1768 238.524 54.2236 235.009C52.3193 231.493 51.3672 227.392 51.3672 222.704C51.3672 218.163 52.3682 214.062 54.3701 210.399C56.3721 206.737 59.1797 203.612 62.793 201.024C66.4062 198.388 70.6543 196.386 75.5371 195.019C80.4199 193.603 85.791 192.895 91.6504 192.895C99.4629 192.895 106.323 194.286 112.231 197.069C118.188 199.804 122.827 203.661 126.147 208.642C129.468 213.573 131.128 219.311 131.128 225.854H107.397C107.397 222.973 106.787 220.434 105.566 218.236C104.395 215.99 102.588 214.232 100.146 212.963C97.7539 211.693 94.751 211.059 91.1377 211.059C87.6221 211.059 84.668 211.596 82.2754 212.67C79.9316 213.695 78.1494 215.111 76.9287 216.918C75.7568 218.725 75.1709 220.702 75.1709 222.851C75.1709 224.56 75.6104 226.122 76.4893 227.538C77.417 228.905 78.7354 230.199 80.4443 231.42C82.2021 232.592 84.3506 233.715 86.8896 234.789C89.4287 235.863 92.334 236.889 95.6055 237.865C101.318 239.672 106.372 241.674 110.767 243.871C115.21 246.068 118.945 248.559 121.973 251.342C125 254.125 127.271 257.274 128.784 260.79C130.347 264.306 131.128 268.285 131.128 272.729C131.128 277.465 130.2 281.664 128.345 285.326C126.538 288.988 123.901 292.113 120.435 294.701C117.017 297.24 112.915 299.169 108.13 300.487C103.345 301.806 97.998 302.465 92.0898 302.465C86.7188 302.465 81.4209 301.781 76.1963 300.414C70.9717 298.998 66.2354 296.85 61.9873 293.969C57.7881 291.088 54.4189 287.426 51.8799 282.982C49.3896 278.49 48.1445 273.168 48.1445 267.016H72.0215C72.0215 270.238 72.4854 272.973 73.4131 275.219C74.3408 277.416 75.6592 279.198 77.3682 280.565C79.126 281.933 81.25 282.909 83.7402 283.495C86.2305 284.081 89.0137 284.374 92.0898 284.374C95.6543 284.374 98.5352 283.886 100.732 282.909C102.979 281.884 104.639 280.492 105.713 278.734C106.787 276.977 107.324 275.023 107.324 272.875ZM156.616 194.359H176.392L202.026 270.604L227.588 194.359H247.363L210.01 301H193.97L156.616 194.359ZM145.19 194.359H165.332L169.067 273.388V301H145.19V194.359ZM238.647 194.359H258.862V301H234.912V273.388L238.647 194.359ZM324.048 194.359V301H300.244V194.359H324.048ZM356.494 194.359V212.89H268.457V194.359H356.494ZM410.327 263.939H383.521V245.409H410.327C414.282 245.409 417.456 244.75 419.849 243.432C422.29 242.113 424.072 240.307 425.195 238.012C426.367 235.668 426.953 233.031 426.953 230.102C426.953 227.074 426.367 224.267 425.195 221.679C424.072 219.042 422.29 216.918 419.849 215.307C417.456 213.695 414.282 212.89 410.327 212.89H392.163V301H368.286V194.359H410.327C418.823 194.359 426.099 195.897 432.153 198.974C438.257 202.05 442.92 206.273 446.143 211.645C449.414 216.967 451.05 223.07 451.05 229.955C451.05 236.84 449.414 242.821 446.143 247.899C442.92 252.978 438.257 256.933 432.153 259.765C426.099 262.548 418.823 263.939 410.327 263.939Z" fill="white"/>
</svg>
