<svg width="500" height="500" viewBox="0 0 500 500" fill="none" xmlns="http://www.w3.org/2000/svg">
<circle cx="250" cy="250" r="250" fill="#27AE60"/>
<path d="M140.723 280.5C140.723 278.091 140.365 275.943 139.648 274.055C138.932 272.102 137.63 270.311 135.742 268.684C133.854 267.056 131.185 265.428 127.734 263.801C124.284 262.108 119.759 260.383 114.16 258.625C107.78 256.542 101.693 254.198 95.8984 251.594C90.1693 248.924 85.0586 245.832 80.5664 242.316C76.0742 238.801 72.526 234.699 69.9219 230.012C67.3828 225.324 66.1133 219.855 66.1133 213.605C66.1133 207.551 67.4479 202.082 70.1172 197.199C72.7865 192.316 76.5299 188.15 81.3477 184.699C86.1654 181.184 91.8294 178.514 98.3398 176.691C104.85 174.803 112.012 173.859 119.824 173.859C130.241 173.859 139.388 175.715 147.266 179.426C155.208 183.072 161.393 188.215 165.82 194.855C170.247 201.431 172.461 209.081 172.461 217.805H140.82C140.82 213.964 140.007 210.578 138.379 207.648C136.816 204.654 134.408 202.31 131.152 200.617C127.962 198.924 123.958 198.078 119.141 198.078C114.453 198.078 110.514 198.794 107.324 200.227C104.199 201.594 101.823 203.482 100.195 205.891C98.6328 208.299 97.8516 210.936 97.8516 213.801C97.8516 216.079 98.4375 218.163 99.6094 220.051C100.846 221.874 102.604 223.599 104.883 225.227C107.227 226.789 110.091 228.286 113.477 229.719C116.862 231.151 120.736 232.518 125.098 233.82C132.715 236.229 139.453 238.898 145.312 241.828C151.237 244.758 156.217 248.078 160.254 251.789C164.29 255.5 167.318 259.699 169.336 264.387C171.419 269.074 172.461 274.38 172.461 280.305C172.461 286.62 171.224 292.219 168.75 297.102C166.341 301.984 162.826 306.151 158.203 309.602C153.646 312.987 148.177 315.559 141.797 317.316C135.417 319.074 128.288 319.953 120.41 319.953C113.249 319.953 106.185 319.042 99.2188 317.219C92.2526 315.331 85.9375 312.466 80.2734 308.625C74.6745 304.784 70.1823 299.901 66.7969 293.977C63.4766 287.987 61.8164 280.891 61.8164 272.688H93.6523C93.6523 276.984 94.2708 280.63 95.5078 283.625C96.7448 286.555 98.5026 288.931 100.781 290.754C103.125 292.577 105.957 293.879 109.277 294.66C112.598 295.441 116.309 295.832 120.41 295.832C125.163 295.832 129.004 295.181 131.934 293.879C134.928 292.512 137.142 290.656 138.574 288.312C140.007 285.969 140.723 283.365 140.723 280.5ZM264.941 280.5C264.941 278.091 264.583 275.943 263.867 274.055C263.151 272.102 261.849 270.311 259.961 268.684C258.073 267.056 255.404 265.428 251.953 263.801C248.503 262.108 243.978 260.383 238.379 258.625C231.999 256.542 225.911 254.198 220.117 251.594C214.388 248.924 209.277 245.832 204.785 242.316C200.293 238.801 196.745 234.699 194.141 230.012C191.602 225.324 190.332 219.855 190.332 213.605C190.332 207.551 191.667 202.082 194.336 197.199C197.005 192.316 200.749 188.15 205.566 184.699C210.384 181.184 216.048 178.514 222.559 176.691C229.069 174.803 236.23 173.859 244.043 173.859C254.46 173.859 263.607 175.715 271.484 179.426C279.427 183.072 285.612 188.215 290.039 194.855C294.466 201.431 296.68 209.081 296.68 217.805H265.039C265.039 213.964 264.225 210.578 262.598 207.648C261.035 204.654 258.626 202.31 255.371 200.617C252.181 198.924 248.177 198.078 243.359 198.078C238.672 198.078 234.733 198.794 231.543 200.227C228.418 201.594 226.042 203.482 224.414 205.891C222.852 208.299 222.07 210.936 222.07 213.801C222.07 216.079 222.656 218.163 223.828 220.051C225.065 221.874 226.823 223.599 229.102 225.227C231.445 226.789 234.31 228.286 237.695 229.719C241.081 231.151 244.954 232.518 249.316 233.82C256.934 236.229 263.672 238.898 269.531 241.828C275.456 244.758 280.436 248.078 284.473 251.789C288.509 255.5 291.536 259.699 293.555 264.387C295.638 269.074 296.68 274.38 296.68 280.305C296.68 286.62 295.443 292.219 292.969 297.102C290.56 301.984 287.044 306.151 282.422 309.602C277.865 312.987 272.396 315.559 266.016 317.316C259.635 319.074 252.507 319.953 244.629 319.953C237.467 319.953 230.404 319.042 223.438 317.219C216.471 315.331 210.156 312.466 204.492 308.625C198.893 304.784 194.401 299.901 191.016 293.977C187.695 287.987 186.035 280.891 186.035 272.688H217.871C217.871 276.984 218.49 280.63 219.727 283.625C220.964 286.555 222.721 288.931 225 290.754C227.344 292.577 230.176 293.879 233.496 294.66C236.816 295.441 240.527 295.832 244.629 295.832C249.382 295.832 253.223 295.181 256.152 293.879C259.147 292.512 261.361 290.656 262.793 288.312C264.225 285.969 264.941 283.365 264.941 280.5ZM410.84 233.039V257.648H337.207V233.039H410.84ZM347.266 175.812V318H315.43V175.812H347.266ZM432.812 175.812V318H401.074V175.812H432.812Z" fill="white"/>
</svg>
