<svg width="500" height="500" viewBox="0 0 500 500" fill="none" xmlns="http://www.w3.org/2000/svg">
<circle cx="250" cy="250" r="250" fill="#2ECC71"/>
<path d="M136.328 175.812V318H104.59V175.812H136.328ZM179.59 175.812V200.52H62.207V175.812H179.59ZM274.316 270.344H305.957C305.436 280.109 302.767 288.736 297.949 296.223C293.197 303.645 286.589 309.471 278.125 313.703C269.661 317.87 259.603 319.953 247.949 319.953C238.639 319.953 230.306 318.358 222.949 315.168C215.592 311.978 209.342 307.421 204.199 301.496C199.121 295.507 195.215 288.312 192.48 279.914C189.811 271.451 188.477 261.913 188.477 251.301V242.609C188.477 231.997 189.876 222.46 192.676 213.996C195.475 205.533 199.479 198.306 204.688 192.316C209.896 186.327 216.146 181.737 223.438 178.547C230.729 175.357 238.867 173.762 247.852 173.762C259.961 173.762 270.182 175.943 278.516 180.305C286.849 184.667 293.294 190.656 297.852 198.273C302.474 205.891 305.241 214.582 306.152 224.348H274.414C274.154 218.814 273.112 214.159 271.289 210.383C269.466 206.542 266.667 203.645 262.891 201.691C259.115 199.738 254.102 198.762 247.852 198.762C243.294 198.762 239.29 199.608 235.84 201.301C232.454 202.993 229.622 205.63 227.344 209.211C225.13 212.792 223.47 217.349 222.363 222.883C221.257 228.352 220.703 234.862 220.703 242.414V251.301C220.703 258.788 221.191 265.266 222.168 270.734C223.145 276.203 224.707 280.728 226.855 284.309C229.069 287.889 231.901 290.559 235.352 292.316C238.802 294.074 243.001 294.953 247.949 294.953C253.613 294.953 258.333 294.074 262.109 292.316C265.885 290.493 268.783 287.759 270.801 284.113C272.819 280.467 273.991 275.878 274.316 270.344ZM379.688 268.586H343.945V243.879H379.688C384.961 243.879 389.193 243 392.383 241.242C395.638 239.484 398.014 237.076 399.512 234.016C401.074 230.891 401.855 227.375 401.855 223.469C401.855 219.432 401.074 215.689 399.512 212.238C398.014 208.723 395.638 205.891 392.383 203.742C389.193 201.594 384.961 200.52 379.688 200.52H355.469V318H323.633V175.812H379.688C391.016 175.812 400.716 177.863 408.789 181.965C416.927 186.066 423.145 191.698 427.441 198.859C431.803 205.956 433.984 214.094 433.984 223.273C433.984 232.453 431.803 240.428 427.441 247.199C423.145 253.97 416.927 259.243 408.789 263.02C400.716 266.73 391.016 268.586 379.688 268.586Z" fill="white"/>
</svg>
