<svg width="500" height="500" viewBox="0 0 500 500" fill="none" xmlns="http://www.w3.org/2000/svg">
<circle cx="250" cy="250" r="250" fill="#F1C40F"/>
<path d="M124.597 194.359V301H100.793V194.359H124.597ZM157.043 194.359V212.89H69.0059V194.359H157.043ZM192.712 194.359V301H168.835V194.359H192.712ZM234.68 239.33V257.787H186.047V239.33H234.68ZM239.367 194.359V212.89H186.047V194.359H239.367ZM302.136 194.359V301H278.332V194.359H302.136ZM334.582 194.359V212.89H246.545V194.359H334.582ZM388.415 263.939H361.608V245.409H388.415C392.37 245.409 395.544 244.75 397.937 243.432C400.378 242.113 402.16 240.307 403.283 238.012C404.455 235.668 405.041 233.031 405.041 230.102C405.041 227.074 404.455 224.267 403.283 221.679C402.16 219.042 400.378 216.918 397.937 215.307C395.544 213.695 392.37 212.89 388.415 212.89H370.251V301H346.374V194.359H388.415C396.911 194.359 404.187 195.897 410.241 198.974C416.345 202.05 421.008 206.273 424.23 211.645C427.502 216.967 429.138 223.07 429.138 229.955C429.138 236.84 427.502 242.821 424.23 247.899C421.008 252.978 416.345 256.933 410.241 259.765C404.187 262.548 396.911 263.939 388.415 263.939Z" fill="#333333"/>
</svg>
