<svg width="500" height="500" viewBox="0 0 500 500" fill="none" xmlns="http://www.w3.org/2000/svg">
<circle cx="250" cy="250" r="250" fill="#E74C3C"/>
<path d="M143.652 175.812H175.488V269.172C175.488 280.24 173.145 289.549 168.457 297.102C163.835 304.654 157.389 310.35 149.121 314.191C140.853 318.033 131.283 319.953 120.41 319.953C109.473 319.953 99.8372 318.033 91.5039 314.191C83.2357 310.35 76.7253 304.654 71.9727 297.102C67.2852 289.549 64.9414 280.24 64.9414 269.172V175.812H96.875V269.172C96.875 275.292 97.7865 280.305 99.6094 284.211C101.497 288.052 104.199 290.884 107.715 292.707C111.23 294.465 115.462 295.344 120.41 295.344C125.358 295.344 129.557 294.465 133.008 292.707C136.523 290.884 139.16 288.052 140.918 284.211C142.741 280.305 143.652 275.292 143.652 269.172V175.812ZM243.262 318H212.012L212.207 293.391H243.262C250.358 293.391 256.348 291.763 261.23 288.508C266.113 285.188 269.824 280.305 272.363 273.859C274.902 267.349 276.172 259.439 276.172 250.129V243.586C276.172 236.555 275.456 230.37 274.023 225.031C272.591 219.628 270.475 215.103 267.676 211.457C264.876 207.811 261.393 205.077 257.227 203.254C253.125 201.431 248.405 200.52 243.066 200.52H211.426V175.812H243.066C252.702 175.812 261.491 177.44 269.434 180.695C277.441 183.951 284.342 188.605 290.137 194.66C295.996 200.715 300.521 207.876 303.711 216.145C306.901 224.413 308.496 233.625 308.496 243.781V250.129C308.496 260.22 306.901 269.432 303.711 277.766C300.521 286.034 295.996 293.195 290.137 299.25C284.342 305.24 277.474 309.862 269.531 313.117C261.589 316.372 252.832 318 243.262 318ZM230.078 175.812V318H198.242V175.812H230.078ZM383.984 268.586H348.242V243.879H383.984C389.258 243.879 393.49 243 396.68 241.242C399.935 239.484 402.311 237.076 403.809 234.016C405.371 230.891 406.152 227.375 406.152 223.469C406.152 219.432 405.371 215.689 403.809 212.238C402.311 208.723 399.935 205.891 396.68 203.742C393.49 201.594 389.258 200.52 383.984 200.52H359.766V318H327.93V175.812H383.984C395.312 175.812 405.013 177.863 413.086 181.965C421.224 186.066 427.441 191.698 431.738 198.859C436.1 205.956 438.281 214.094 438.281 223.273C438.281 232.453 436.1 240.428 431.738 247.199C427.441 253.97 421.224 259.243 413.086 263.02C405.013 266.73 395.312 268.586 383.984 268.586Z" fill="white"/>
</svg>
